<svg t="1531992638973" class="icon" style="" viewBox="0 0 1946 1024" version="1.1" xmlns="http://www.w3.org/2000/svg" p-id="2893" xmlns:xlink="http://www.w3.org/1999/xlink" width="380.078125" height="200"><defs><style type="text/css"></style></defs><path d="M941.479506 0l-104.549136 204.743111h-258.085926c-181.892741 0-336.472494 132.955654-363.678024 312.806716a272.112198 272.112198 0 0 0-3.059358 40.694519c0 150.281481 121.824395 272.118519 272.112197 272.118518h236.739951l112.25442-219.420444h-344.177778l93.297778-186.437531h571.537382l-300.423901 599.292839H456.628148c-18.488889 0-36.965136-1.118815-55.314963-3.356444-250.311111-30.549333-428.461827-258.231309-397.906173-508.54242C39.070025 219.673284 287.181432 0 581.581432 0h359.891753z m194.970864 0H1946.864198l-508.144198 1023.804049h-268.920099L1578.856296 204.73679h-543.396345L1136.45037 0z" p-id="2894"></path></svg>